<svg width="48" height="48" viewBox="0 0 48 48" fill="none" xmlns="http://www.w3.org/2000/svg">
<path d="M24 4.5C13.2281 4.5 4.5 13.2281 4.5 24C4.5 34.7719 13.2281 43.5 24 43.5C34.7719 43.5 43.5 34.7719 43.5 24C43.5 13.2281 34.7719 4.5 24 4.5ZM28.9406 31.0594L24 26.1188L19.0594 31.0594C18.4781 31.6406 17.5219 31.6406 16.9406 31.0594C16.65 30.7687 16.5 30.3844 16.5 30C16.5 29.6156 16.65 29.2313 16.9406 28.9406L21.8812 24L16.9406 19.0594C16.65 18.7688 16.5 18.3844 16.5 18C16.5 17.6156 16.65 17.2312 16.9406 16.9406C17.5219 16.3594 18.4781 16.3594 19.0594 16.9406L24 21.8812L28.9406 16.9406C29.5219 16.3594 30.4781 16.3594 31.0594 16.9406C31.6406 17.5219 31.6406 18.4781 31.0594 19.0594L26.1188 24L31.0594 28.9406C31.6406 29.5219 31.6406 30.4781 31.0594 31.0594C30.4781 31.65 29.5219 31.65 28.9406 31.0594Z" fill="#8C8C8C"/>
</svg>
